<svg width="1400" height="1200" xmlns="http://www.w3.org/2000/svg">
<defs>
<filter id="sombra" x="0" y="0" width="200%" height="200%">
<feOffset result="offOut" in="SourceAlpha" dx="3" dy="3" />
<feGaussianBlur result="blurOut" in="offOut" stdDeviation="2" />
<feBlend in="SourceGraphic" in2="blurOut" mode="normal" />
</filter>
<marker id="seta_open" markerWidth="12" markerHeight="12" refX="9" refY="3" orient="auto"><path d="M0,0 L0,6 L9,3 z" fill="black" /></marker>
<marker id="seta_heranca" markerWidth="16" markerHeight="16" refX="14" refY="7" orient="auto"><path d="M0,0 L14,7 L0,14 L0,0" fill="white" stroke="black" /></marker>
<marker id="seta_agregacao" markerWidth="18" markerHeight="12" refX="16" refY="5" orient="auto"><path d="M0,5 L8,0 L16,5 L8,10 z" fill="white" stroke="black" /></marker>
<marker id="seta_composicao" markerWidth="18" markerHeight="12" refX="16" refY="5" orient="auto"><path d="M0,5 L8,0 L16,5 L8,10 z" fill="black" stroke="black" /></marker>
</defs>
<style>
.texto { font-family: Arial, sans-serif; font-size: 12px; fill: #333; }
.titulo { font-family: Arial, sans-serif; font-size: 14px; font-weight: bold; fill: black; }
.titulo-diagrama { font-family: Arial, sans-serif; font-size: 24px; font-weight: bold; fill: #2c3e50; }
.box { fill: #fff; stroke: #333; stroke-width: 1; filter: url(#sombra); }
.header-box { fill: #f0f0f0; stroke: #333; stroke-width: 1; }
.linha { stroke: #333; stroke-width: 1.5; }
.label-bg { fill: white; opacity: 0.9; }
</style>
<text x="700" y="40" class="titulo-diagrama" text-anchor="middle">Exemplo - Zoologico</text>
<rect x="590" y="558" width="220" height="85" class="box" />
<rect x="590" y="558" width="220" height="30" class="header-box" />
<text x="700" y="578" class="titulo" text-anchor="middle">Animal</text>
<line x1="590" y1="588" x2="810" y2="588" class="linha" />
<text x="600" y="603" class="texto">- idade : int</text>
<line x1="590" y1="613" x2="810" y2="613" class="linha" />
<text x="600" y="628" class="texto" style="font-style:italic">+ comer() : void</text>
<rect x="1140" y="565" width="220" height="70" class="box" />
<rect x="1140" y="565" width="220" height="30" class="header-box" />
<text x="1250" y="585" class="titulo" text-anchor="middle">Cachorro</text>
<line x1="1140" y1="595" x2="1360" y2="595" class="linha" />
<line x1="1140" y1="605" x2="1360" y2="605" class="linha" />
<text x="1150" y="620" class="texto" style="font-style:italic">+ latir() : void</text>
<rect x="40" y="565" width="220" height="70" class="box" />
<rect x="40" y="565" width="220" height="30" class="header-box" />
<text x="150" y="585" class="titulo" text-anchor="middle">Gato</text>
<line x1="40" y1="595" x2="260" y2="595" class="linha" />
<line x1="40" y1="605" x2="260" y2="605" class="linha" />
<text x="50" y="620" class="texto" style="font-style:italic">+ miar() : void</text>
<line x1="810" y1="600" x2="1140" y2="600" class="linha" stroke-dasharray="0" marker-end="url(#seta_heranca)" />
<line x1="590" y1="600" x2="260" y2="600" class="linha" stroke-dasharray="0" marker-end="url(#seta_heranca)" />
</svg>